<mxfile host="app.diagrams.net" agent="Mozilla/5.0 (Windows NT 10.0; Win64; x64) AppleWebKit/537.36 (KHTML, like Gecko) Chrome/129.0.0.0 Safari/537.36 Edg/129.0.0.0" version="24.7.17">
  <diagram name="Page-1" id="esVlBsOZEMflyCbbcKqj">
    <mxGraphModel grid="1" page="1" gridSize="10" guides="1" tooltips="1" connect="1" arrows="1" fold="1" pageScale="1" pageWidth="850" pageHeight="1100" math="0" shadow="0">
      <root>
        <mxCell id="0" />
        <mxCell id="1" parent="0" />
        <mxCell id="UcHw_VRGnY01g3brgdtn-59" value="opt" style="swimlane;horizontal=0;whiteSpace=wrap;html=1;swimlaneFillColor=#FFFFFF;" vertex="1" parent="1">
          <mxGeometry x="280" y="570" width="460" height="170" as="geometry" />
        </mxCell>
        <mxCell id="UcHw_VRGnY01g3brgdtn-60" value="" style="endArrow=classic;html=1;rounded=0;entryX=0.75;entryY=0;entryDx=0;entryDy=0;" edge="1" parent="UcHw_VRGnY01g3brgdtn-59" target="UcHw_VRGnY01g3brgdtn-13">
          <mxGeometry width="50" height="50" relative="1" as="geometry">
            <mxPoint x="30" y="50" as="sourcePoint" />
            <mxPoint x="30" y="50" as="targetPoint" />
          </mxGeometry>
        </mxCell>
        <mxCell id="UcHw_VRGnY01g3brgdtn-61" value="make payment" style="edgeLabel;html=1;align=center;verticalAlign=middle;resizable=0;points=[];" connectable="0" vertex="1" parent="UcHw_VRGnY01g3brgdtn-60">
          <mxGeometry x="0.0714" relative="1" as="geometry">
            <mxPoint as="offset" />
          </mxGeometry>
        </mxCell>
        <mxCell id="UcHw_VRGnY01g3brgdtn-65" value="" style="endArrow=classic;html=1;rounded=0;exitX=0.279;exitY=0.935;exitDx=0;exitDy=0;exitPerimeter=0;" edge="1" parent="UcHw_VRGnY01g3brgdtn-59" source="UcHw_VRGnY01g3brgdtn-11">
          <mxGeometry width="50" height="50" relative="1" as="geometry">
            <mxPoint x="175" y="151.10000000000002" as="sourcePoint" />
            <mxPoint x="30" y="140" as="targetPoint" />
          </mxGeometry>
        </mxCell>
        <mxCell id="UcHw_VRGnY01g3brgdtn-66" value="update ride status" style="edgeLabel;html=1;align=center;verticalAlign=middle;resizable=0;points=[];" connectable="0" vertex="1" parent="UcHw_VRGnY01g3brgdtn-65">
          <mxGeometry x="0.0714" relative="1" as="geometry">
            <mxPoint as="offset" />
          </mxGeometry>
        </mxCell>
        <mxCell id="UcHw_VRGnY01g3brgdtn-67" value="if accepted" style="text;html=1;align=center;verticalAlign=middle;whiteSpace=wrap;rounded=0;" vertex="1" parent="UcHw_VRGnY01g3brgdtn-59">
          <mxGeometry x="30" width="80" height="30" as="geometry" />
        </mxCell>
        <mxCell id="UcHw_VRGnY01g3brgdtn-14" value="alt" style="swimlane;horizontal=0;whiteSpace=wrap;html=1;swimlaneFillColor=#FFFFFF;" vertex="1" parent="1">
          <mxGeometry x="280" y="350" width="320" height="200" as="geometry" />
        </mxCell>
        <mxCell id="UcHw_VRGnY01g3brgdtn-44" value="" style="endArrow=classic;html=1;rounded=0;exitX=-0.196;exitY=0.267;exitDx=0;exitDy=0;exitPerimeter=0;" edge="1" parent="UcHw_VRGnY01g3brgdtn-14" source="UcHw_VRGnY01g3brgdtn-11">
          <mxGeometry width="50" height="50" relative="1" as="geometry">
            <mxPoint x="175" y="51.10000000000002" as="sourcePoint" />
            <mxPoint x="30" y="50" as="targetPoint" />
          </mxGeometry>
        </mxCell>
        <mxCell id="UcHw_VRGnY01g3brgdtn-45" value="confirm ride" style="edgeLabel;html=1;align=center;verticalAlign=middle;resizable=0;points=[];" connectable="0" vertex="1" parent="UcHw_VRGnY01g3brgdtn-44">
          <mxGeometry x="0.0714" relative="1" as="geometry">
            <mxPoint as="offset" />
          </mxGeometry>
        </mxCell>
        <mxCell id="UcHw_VRGnY01g3brgdtn-48" value="decline" style="text;html=1;align=center;verticalAlign=middle;whiteSpace=wrap;rounded=0;" vertex="1" parent="UcHw_VRGnY01g3brgdtn-14">
          <mxGeometry x="30" y="100" width="60" height="30" as="geometry" />
        </mxCell>
        <mxCell id="UcHw_VRGnY01g3brgdtn-51" value="" style="endArrow=classic;html=1;rounded=0;entryX=0.674;entryY=0.439;entryDx=0;entryDy=0;entryPerimeter=0;exitX=0;exitY=0.25;exitDx=0;exitDy=0;" edge="1" parent="UcHw_VRGnY01g3brgdtn-14" target="UcHw_VRGnY01g3brgdtn-11">
          <mxGeometry width="50" height="50" relative="1" as="geometry">
            <mxPoint x="305" y="130.5" as="sourcePoint" />
            <mxPoint x="171" y="131.5" as="targetPoint" />
          </mxGeometry>
        </mxCell>
        <mxCell id="UcHw_VRGnY01g3brgdtn-52" value="decline request" style="edgeLabel;html=1;align=center;verticalAlign=middle;resizable=0;points=[];" connectable="0" vertex="1" parent="UcHw_VRGnY01g3brgdtn-51">
          <mxGeometry x="0.0714" relative="1" as="geometry">
            <mxPoint as="offset" />
          </mxGeometry>
        </mxCell>
        <mxCell id="UcHw_VRGnY01g3brgdtn-56" value="" style="endArrow=classic;html=1;rounded=0;exitX=0.065;exitY=0.479;exitDx=0;exitDy=0;exitPerimeter=0;" edge="1" parent="UcHw_VRGnY01g3brgdtn-14" source="UcHw_VRGnY01g3brgdtn-11">
          <mxGeometry width="50" height="50" relative="1" as="geometry">
            <mxPoint x="175" y="151.10000000000002" as="sourcePoint" />
            <mxPoint x="30" y="150" as="targetPoint" />
          </mxGeometry>
        </mxCell>
        <mxCell id="UcHw_VRGnY01g3brgdtn-57" value="ride declined" style="edgeLabel;html=1;align=center;verticalAlign=middle;resizable=0;points=[];" connectable="0" vertex="1" parent="UcHw_VRGnY01g3brgdtn-56">
          <mxGeometry x="0.0714" relative="1" as="geometry">
            <mxPoint as="offset" />
          </mxGeometry>
        </mxCell>
        <mxCell id="UcHw_VRGnY01g3brgdtn-58" value="drivers decision" style="text;html=1;align=center;verticalAlign=middle;whiteSpace=wrap;rounded=0;" vertex="1" parent="UcHw_VRGnY01g3brgdtn-14">
          <mxGeometry x="30" width="90" height="30" as="geometry" />
        </mxCell>
        <mxCell id="UcHw_VRGnY01g3brgdtn-1" value="Rider" style="rounded=1;whiteSpace=wrap;html=1;fillColor=#d5e8d4;strokeColor=#82b366;" vertex="1" parent="1">
          <mxGeometry x="250" y="80" width="120" height="60" as="geometry" />
        </mxCell>
        <mxCell id="UcHw_VRGnY01g3brgdtn-2" value="Carpooling&amp;nbsp;&lt;div&gt;system&lt;/div&gt;" style="rounded=1;whiteSpace=wrap;html=1;fillColor=#dae8fc;strokeColor=#6c8ebf;" vertex="1" parent="1">
          <mxGeometry x="390" y="80" width="120" height="60" as="geometry" />
        </mxCell>
        <mxCell id="UcHw_VRGnY01g3brgdtn-3" value="Driver" style="rounded=1;whiteSpace=wrap;html=1;fillColor=#ffe6cc;strokeColor=#d79b00;" vertex="1" parent="1">
          <mxGeometry x="530" y="80" width="120" height="60" as="geometry" />
        </mxCell>
        <mxCell id="UcHw_VRGnY01g3brgdtn-5" value="Payment&lt;br&gt;System" style="rounded=1;whiteSpace=wrap;html=1;fillColor=#e1d5e7;strokeColor=#9673a6;" vertex="1" parent="1">
          <mxGeometry x="670" y="80" width="120" height="60" as="geometry" />
        </mxCell>
        <mxCell id="UcHw_VRGnY01g3brgdtn-16" value="" style="endArrow=none;html=1;rounded=0;entryX=0.5;entryY=1;entryDx=0;entryDy=0;exitX=0.5;exitY=0;exitDx=0;exitDy=0;fillColor=#d5e8d4;strokeColor=#82b366;" edge="1" parent="1" target="UcHw_VRGnY01g3brgdtn-1">
          <mxGeometry width="50" height="50" relative="1" as="geometry">
            <mxPoint x="310" y="769.9999999999998" as="sourcePoint" />
            <mxPoint x="560" y="280" as="targetPoint" />
          </mxGeometry>
        </mxCell>
        <mxCell id="UcHw_VRGnY01g3brgdtn-20" value="" style="endArrow=none;html=1;rounded=0;entryX=0.5;entryY=1;entryDx=0;entryDy=0;exitX=0.5;exitY=0;exitDx=0;exitDy=0;fillColor=#dae8fc;strokeColor=#6c8ebf;" edge="1" parent="1">
          <mxGeometry width="50" height="50" relative="1" as="geometry">
            <mxPoint x="450" y="770" as="sourcePoint" />
            <mxPoint x="450" y="140" as="targetPoint" />
          </mxGeometry>
        </mxCell>
        <mxCell id="UcHw_VRGnY01g3brgdtn-21" value="" style="endArrow=none;html=1;rounded=0;entryX=0.5;entryY=1;entryDx=0;entryDy=0;exitX=0.5;exitY=0;exitDx=0;exitDy=0;fillColor=#ffe6cc;strokeColor=#d79b00;" edge="1" parent="1">
          <mxGeometry width="50" height="50" relative="1" as="geometry">
            <mxPoint x="590" y="770" as="sourcePoint" />
            <mxPoint x="590" y="140" as="targetPoint" />
          </mxGeometry>
        </mxCell>
        <mxCell id="UcHw_VRGnY01g3brgdtn-22" value="" style="endArrow=none;html=1;rounded=0;entryX=0.5;entryY=1;entryDx=0;entryDy=0;exitX=0.5;exitY=0;exitDx=0;exitDy=0;fillColor=#e1d5e7;strokeColor=#9673a6;" edge="1" parent="1">
          <mxGeometry width="50" height="50" relative="1" as="geometry">
            <mxPoint x="730" y="770" as="sourcePoint" />
            <mxPoint x="730" y="140" as="targetPoint" />
          </mxGeometry>
        </mxCell>
        <mxCell id="UcHw_VRGnY01g3brgdtn-23" value="" style="endArrow=classic;html=1;rounded=0;" edge="1" parent="1">
          <mxGeometry width="50" height="50" relative="1" as="geometry">
            <mxPoint x="310" y="180" as="sourcePoint" />
            <mxPoint x="450" y="180" as="targetPoint" />
          </mxGeometry>
        </mxCell>
        <mxCell id="UcHw_VRGnY01g3brgdtn-24" value="search for ride" style="edgeLabel;html=1;align=center;verticalAlign=middle;resizable=0;points=[];" connectable="0" vertex="1" parent="UcHw_VRGnY01g3brgdtn-23">
          <mxGeometry x="0.0714" relative="1" as="geometry">
            <mxPoint as="offset" />
          </mxGeometry>
        </mxCell>
        <mxCell id="UcHw_VRGnY01g3brgdtn-25" value="Rider" style="rounded=1;whiteSpace=wrap;html=1;fillColor=#d5e8d4;strokeColor=#82b366;" vertex="1" parent="1">
          <mxGeometry x="250" y="770" width="120" height="60" as="geometry" />
        </mxCell>
        <mxCell id="UcHw_VRGnY01g3brgdtn-26" value="Carpooling&amp;nbsp;&lt;div&gt;system&lt;/div&gt;" style="rounded=1;whiteSpace=wrap;html=1;fillColor=#dae8fc;strokeColor=#6c8ebf;" vertex="1" parent="1">
          <mxGeometry x="390" y="770" width="120" height="60" as="geometry" />
        </mxCell>
        <mxCell id="UcHw_VRGnY01g3brgdtn-27" value="Driver" style="rounded=1;whiteSpace=wrap;html=1;fillColor=#ffe6cc;strokeColor=#d79b00;" vertex="1" parent="1">
          <mxGeometry x="530" y="770" width="120" height="60" as="geometry" />
        </mxCell>
        <mxCell id="UcHw_VRGnY01g3brgdtn-28" value="Payment&lt;br&gt;System" style="rounded=1;whiteSpace=wrap;html=1;fillColor=#e1d5e7;strokeColor=#9673a6;" vertex="1" parent="1">
          <mxGeometry x="670" y="770" width="120" height="60" as="geometry" />
        </mxCell>
        <mxCell id="UcHw_VRGnY01g3brgdtn-31" value="" style="endArrow=classic;html=1;rounded=0;" edge="1" parent="1">
          <mxGeometry width="50" height="50" relative="1" as="geometry">
            <mxPoint x="310" y="280" as="sourcePoint" />
            <mxPoint x="450" y="280" as="targetPoint" />
          </mxGeometry>
        </mxCell>
        <mxCell id="UcHw_VRGnY01g3brgdtn-32" value="request ride" style="edgeLabel;html=1;align=center;verticalAlign=middle;resizable=0;points=[];" connectable="0" vertex="1" parent="UcHw_VRGnY01g3brgdtn-31">
          <mxGeometry x="0.0714" relative="1" as="geometry">
            <mxPoint as="offset" />
          </mxGeometry>
        </mxCell>
        <mxCell id="UcHw_VRGnY01g3brgdtn-12" value="" style="rounded=1;whiteSpace=wrap;html=1;fillColor=#ffe6cc;strokeColor=#d79b00;" vertex="1" parent="1">
          <mxGeometry x="585" y="320" width="10" height="230" as="geometry" />
        </mxCell>
        <mxCell id="UcHw_VRGnY01g3brgdtn-10" value="" style="rounded=1;whiteSpace=wrap;html=1;fillColor=#d5e8d4;strokeColor=#82b366;" vertex="1" parent="1">
          <mxGeometry x="305" y="180" width="10" height="100" as="geometry" />
        </mxCell>
        <mxCell id="UcHw_VRGnY01g3brgdtn-11" value="" style="rounded=1;whiteSpace=wrap;html=1;fillColor=#dae8fc;strokeColor=#6c8ebf;" vertex="1" parent="1">
          <mxGeometry x="445" y="280" width="10" height="460" as="geometry" />
        </mxCell>
        <mxCell id="UcHw_VRGnY01g3brgdtn-13" value="" style="rounded=1;whiteSpace=wrap;html=1;fillColor=#e1d5e7;strokeColor=#9673a6;" vertex="1" parent="1">
          <mxGeometry x="725" y="620" width="10" height="60" as="geometry" />
        </mxCell>
        <mxCell id="UcHw_VRGnY01g3brgdtn-36" value="" style="endArrow=classic;html=1;rounded=0;entryX=0.9;entryY=0.41;entryDx=0;entryDy=0;entryPerimeter=0;" edge="1" parent="1" target="UcHw_VRGnY01g3brgdtn-10">
          <mxGeometry width="50" height="50" relative="1" as="geometry">
            <mxPoint x="450" y="221" as="sourcePoint" />
            <mxPoint x="430" y="219" as="targetPoint" />
          </mxGeometry>
        </mxCell>
        <mxCell id="UcHw_VRGnY01g3brgdtn-37" value="available rides" style="edgeLabel;html=1;align=center;verticalAlign=middle;resizable=0;points=[];" connectable="0" vertex="1" parent="UcHw_VRGnY01g3brgdtn-36">
          <mxGeometry x="0.0714" relative="1" as="geometry">
            <mxPoint as="offset" />
          </mxGeometry>
        </mxCell>
        <mxCell id="UcHw_VRGnY01g3brgdtn-39" value="" style="endArrow=classic;html=1;rounded=0;" edge="1" parent="1">
          <mxGeometry width="50" height="50" relative="1" as="geometry">
            <mxPoint x="455" y="320" as="sourcePoint" />
            <mxPoint x="580" y="320" as="targetPoint" />
          </mxGeometry>
        </mxCell>
        <mxCell id="UcHw_VRGnY01g3brgdtn-40" value="forward request" style="edgeLabel;html=1;align=center;verticalAlign=middle;resizable=0;points=[];" connectable="0" vertex="1" parent="UcHw_VRGnY01g3brgdtn-39">
          <mxGeometry x="0.0714" relative="1" as="geometry">
            <mxPoint as="offset" />
          </mxGeometry>
        </mxCell>
        <mxCell id="UcHw_VRGnY01g3brgdtn-47" value="" style="endArrow=none;dashed=1;html=1;rounded=0;entryX=1;entryY=0.5;entryDx=0;entryDy=0;" edge="1" parent="1" target="UcHw_VRGnY01g3brgdtn-14">
          <mxGeometry width="50" height="50" relative="1" as="geometry">
            <mxPoint x="300" y="450" as="sourcePoint" />
            <mxPoint x="480" y="370" as="targetPoint" />
          </mxGeometry>
        </mxCell>
        <mxCell id="UcHw_VRGnY01g3brgdtn-41" value="" style="endArrow=classic;html=1;rounded=0;entryX=0.761;entryY=0.211;entryDx=0;entryDy=0;entryPerimeter=0;exitX=0;exitY=0.25;exitDx=0;exitDy=0;" edge="1" parent="1" source="UcHw_VRGnY01g3brgdtn-12" target="UcHw_VRGnY01g3brgdtn-11">
          <mxGeometry width="50" height="50" relative="1" as="geometry">
            <mxPoint x="595" y="380" as="sourcePoint" />
            <mxPoint x="460" y="380" as="targetPoint" />
          </mxGeometry>
        </mxCell>
        <mxCell id="UcHw_VRGnY01g3brgdtn-42" value="accept request" style="edgeLabel;html=1;align=center;verticalAlign=middle;resizable=0;points=[];" connectable="0" vertex="1" parent="UcHw_VRGnY01g3brgdtn-41">
          <mxGeometry x="0.0714" relative="1" as="geometry">
            <mxPoint as="offset" />
          </mxGeometry>
        </mxCell>
        <mxCell id="UcHw_VRGnY01g3brgdtn-63" value="" style="endArrow=classic;html=1;rounded=0;entryX=1.5;entryY=0.87;entryDx=0;entryDy=0;entryPerimeter=0;exitX=0;exitY=1;exitDx=0;exitDy=0;" edge="1" parent="1" source="UcHw_VRGnY01g3brgdtn-13" target="UcHw_VRGnY01g3brgdtn-11">
          <mxGeometry width="50" height="50" relative="1" as="geometry">
            <mxPoint x="585" y="700.5" as="sourcePoint" />
            <mxPoint x="451" y="701.5" as="targetPoint" />
          </mxGeometry>
        </mxCell>
        <mxCell id="UcHw_VRGnY01g3brgdtn-64" value="confirm payment" style="edgeLabel;html=1;align=center;verticalAlign=middle;resizable=0;points=[];" connectable="0" vertex="1" parent="UcHw_VRGnY01g3brgdtn-63">
          <mxGeometry x="0.0714" relative="1" as="geometry">
            <mxPoint as="offset" />
          </mxGeometry>
        </mxCell>
      </root>
    </mxGraphModel>
  </diagram>
</mxfile>
